<svg width="512" height="512" viewBox="0 0 512 512" fill="none" xmlns="http://www.w3.org/2000/svg">
<g clip-path="url(#clip0)">
<rect width="512" height="512" fill="#1B1D25"/>
<path d="M305.8 364.4C312.2 380.933 321.4 389.467 333.4 390V398C322.733 397.2 308.467 396.8 290.6 396.8C267.667 396.8 250.6 397.2 239.4 398V390C249.533 389.467 256.733 388.267 261 386.4C265.533 384.267 267.8 380.533 267.8 375.2C267.8 370.667 266.2 364.4 263 356.4L238.6 290.8H141.8L125.4 333.2C120.067 347.6 117.4 358.533 117.4 366C117.4 374.267 120.2 380.267 125.8 384C131.667 387.733 140.467 389.733 152.2 390V398C137 397.2 121.667 396.8 106.2 396.8C94.2 396.8 84.2 397.2 76.2 398V390C89.5333 386.8 100.067 375.2 107.8 355.2L201.8 112.8H208.2L305.8 364.4ZM235.4 282.8L190.6 163.2L145 282.8H235.4ZM381.353 352.4C388.286 352.4 394.286 354.933 399.353 360C404.42 365.067 406.953 371.067 406.953 378C406.953 384.933 404.42 390.933 399.353 396C394.286 401.067 388.286 403.6 381.353 403.6C374.42 403.6 368.42 401.067 363.353 396C358.286 390.933 355.753 384.933 355.753 378C355.753 371.067 358.286 365.067 363.353 360C368.42 354.933 374.42 352.4 381.353 352.4Z" fill="white"/>
</g>
<defs>
<clipPath id="clip0">
<rect width="512" height="512" fill="white"/>
</clipPath>
</defs>
</svg>
